<?xml version="1.0" encoding="UTF-8" standalone="no"?>
<!DOCTYPE svg PUBLIC "-//W3C//DTD SVG 1.1//EN"
 "http://www.w3.org/Graphics/SVG/1.1/DTD/svg11.dtd">
<!-- Generated by graphviz version 14.1.5 (20260411.2331)
 -->
<!-- Title: ontology Pages: 1 -->
<svg width="1564pt" height="453pt"
 viewBox="0.00 0.00 1564.00 453.00" xmlns="http://www.w3.org/2000/svg" xmlns:xlink="http://www.w3.org/1999/xlink">
<g id="graph0" class="graph" transform="scale(1 1) rotate(0) translate(14.4 438.98)">
<title>ontology</title>
<polygon fill="white" stroke="none" points="-14.4,14.4 -14.4,-438.98 1549.8,-438.98 1549.8,14.4 -14.4,14.4"/>
<polygon fill="#eceff1" stroke="none" points="608.58,-57.25 608.58,-77 795.33,-77 795.33,-57.25 608.58,-57.25"/>
<text xml:space="preserve" text-anchor="start" x="644.95" y="-64.5" font-family="sans-Serif" font-size="9.00">External standards / SHACL</text>
<text xml:space="preserve" text-anchor="start" x="610.58" y="-44.75" font-family="sans-Serif" font-size="9.00">Solid: object property | Hollow arrow: subclass | Dotted: OR/AND membership</text>
<text xml:space="preserve" text-anchor="start" x="616.2" y="-28" font-family="sans-Serif" font-size="9.00">Attributes: datatype properties | Registries: unscoped properties / metadata</text>
<text xml:space="preserve" text-anchor="start" x="670.58" y="-11.25" font-family="sans-Serif" font-size="9.00">Dashed gray class boxes: cross&#45;module context</text>
<!-- http://www.opengis.net/ont/geosparql#Feature -->
<g id="node1" class="node">
<title>http://www.opengis.net/ont/geosparql#Feature</title>
<g id="a_node1"><a xlink:title="http://www.opengis.net/ont/geosparql#Feature">
<path fill="#eceff1" stroke="#52606d" d="M75.4,-272.29C75.4,-272.29 12,-272.29 12,-272.29 6,-272.29 0,-266.29 0,-260.29 0,-260.29 0,-248.29 0,-248.29 0,-242.29 6,-236.29 12,-236.29 12,-236.29 75.4,-236.29 75.4,-236.29 81.4,-236.29 87.4,-242.29 87.4,-248.29 87.4,-248.29 87.4,-260.29 87.4,-260.29 87.4,-266.29 81.4,-272.29 75.4,-272.29"/>
<polygon fill="#eceff1" stroke="none" points="7.2,-243.29 7.2,-265.29 80.2,-265.29 80.2,-243.29 7.2,-243.29"/>
<text xml:space="preserve" text-anchor="start" x="12.2" y="-250.84" font-family="sans-Serif" font-weight="bold" font-size="11.00" fill="#17212b">geo:Feature</text>
</a>
</g>
</g>
<!-- http://www.opengis.net/ont/geosparql#Geometry -->
<g id="node2" class="node">
<title>http://www.opengis.net/ont/geosparql#Geometry</title>
<g id="a_node2"><a xlink:title="http://www.opengis.net/ont/geosparql#Geometry">
<path fill="#eceff1" stroke="#52606d" d="M194.02,-272.29C194.02,-272.29 119.37,-272.29 119.37,-272.29 113.37,-272.29 107.37,-266.29 107.37,-260.29 107.37,-260.29 107.37,-248.29 107.37,-248.29 107.37,-242.29 113.37,-236.29 119.37,-236.29 119.37,-236.29 194.02,-236.29 194.02,-236.29 200.02,-236.29 206.02,-242.29 206.02,-248.29 206.02,-248.29 206.02,-260.29 206.02,-260.29 206.02,-266.29 200.02,-272.29 194.02,-272.29"/>
<polygon fill="#eceff1" stroke="none" points="114.57,-243.29 114.57,-265.29 198.82,-265.29 198.82,-243.29 114.57,-243.29"/>
<text xml:space="preserve" text-anchor="start" x="119.57" y="-250.84" font-family="sans-Serif" font-weight="bold" font-size="11.00" fill="#17212b">geo:Geometry</text>
</a>
</g>
</g>
<!-- http://www.w3.org/ns/shacl#NodeShape -->
<g id="node3" class="node">
<title>http://www.w3.org/ns/shacl#NodeShape</title>
<g id="a_node3"><a xlink:title="http://www.w3.org/ns/shacl#NodeShape">
<path fill="#eceff1" stroke="#52606d" d="M315.52,-272.29C315.52,-272.29 237.88,-272.29 237.88,-272.29 231.88,-272.29 225.88,-266.29 225.88,-260.29 225.88,-260.29 225.88,-248.29 225.88,-248.29 225.88,-242.29 231.88,-236.29 237.88,-236.29 237.88,-236.29 315.52,-236.29 315.52,-236.29 321.52,-236.29 327.52,-242.29 327.52,-248.29 327.52,-248.29 327.52,-260.29 327.52,-260.29 327.52,-266.29 321.52,-272.29 315.52,-272.29"/>
<polygon fill="#eceff1" stroke="none" points="233.07,-243.29 233.07,-265.29 320.32,-265.29 320.32,-243.29 233.07,-243.29"/>
<text xml:space="preserve" text-anchor="start" x="238.07" y="-250.84" font-family="sans-Serif" font-weight="bold" font-size="11.00" fill="#17212b">sh:NodeShape</text>
</a>
</g>
</g>
<!-- http://www.w3.org/ns/sosa/Observation -->
<g id="node4" class="node">
<title>http://www.w3.org/ns/sosa/Observation</title>
<g id="a_node4"><a xlink:title="http://www.w3.org/ns/sosa/Observation">
<path fill="#eceff1" stroke="#52606d" d="M452.02,-272.29C452.02,-272.29 359.38,-272.29 359.38,-272.29 353.38,-272.29 347.38,-266.29 347.38,-260.29 347.38,-260.29 347.38,-248.29 347.38,-248.29 347.38,-242.29 353.38,-236.29 359.38,-236.29 359.38,-236.29 452.02,-236.29 452.02,-236.29 458.02,-236.29 464.02,-242.29 464.02,-248.29 464.02,-248.29 464.02,-260.29 464.02,-260.29 464.02,-266.29 458.02,-272.29 452.02,-272.29"/>
<polygon fill="#eceff1" stroke="none" points="354.57,-243.29 354.57,-265.29 456.82,-265.29 456.82,-243.29 354.57,-243.29"/>
<text xml:space="preserve" text-anchor="start" x="359.57" y="-250.84" font-family="sans-Serif" font-weight="bold" font-size="11.00" fill="#17212b">sosa:Observation</text>
</a>
</g>
</g>
<!-- http://www.w3.org/ns/sosa/Platform -->
<g id="node5" class="node">
<title>http://www.w3.org/ns/sosa/Platform</title>
<g id="a_node5"><a xlink:title="http://www.w3.org/ns/sosa/Platform">
<path fill="#eceff1" stroke="#52606d" d="M569.65,-272.29C569.65,-272.29 495.75,-272.29 495.75,-272.29 489.75,-272.29 483.75,-266.29 483.75,-260.29 483.75,-260.29 483.75,-248.29 483.75,-248.29 483.75,-242.29 489.75,-236.29 495.75,-236.29 495.75,-236.29 569.65,-236.29 569.65,-236.29 575.65,-236.29 581.65,-242.29 581.65,-248.29 581.65,-248.29 581.65,-260.29 581.65,-260.29 581.65,-266.29 575.65,-272.29 569.65,-272.29"/>
<polygon fill="#eceff1" stroke="none" points="490.95,-243.29 490.95,-265.29 574.45,-265.29 574.45,-243.29 490.95,-243.29"/>
<text xml:space="preserve" text-anchor="start" x="495.95" y="-250.84" font-family="sans-Serif" font-weight="bold" font-size="11.00" fill="#17212b">sosa:Platform</text>
</a>
</g>
</g>
<!-- http://www.w3.org/ns/sosa/Sensor -->
<g id="node6" class="node">
<title>http://www.w3.org/ns/sosa/Sensor</title>
<g id="a_node6"><a xlink:title="http://www.w3.org/ns/sosa/Sensor">
<path fill="#eceff1" stroke="#52606d" d="M679.9,-272.29C679.9,-272.29 613.5,-272.29 613.5,-272.29 607.5,-272.29 601.5,-266.29 601.5,-260.29 601.5,-260.29 601.5,-248.29 601.5,-248.29 601.5,-242.29 607.5,-236.29 613.5,-236.29 613.5,-236.29 679.9,-236.29 679.9,-236.29 685.9,-236.29 691.9,-242.29 691.9,-248.29 691.9,-248.29 691.9,-260.29 691.9,-260.29 691.9,-266.29 685.9,-272.29 679.9,-272.29"/>
<polygon fill="#eceff1" stroke="none" points="608.7,-243.29 608.7,-265.29 684.7,-265.29 684.7,-243.29 608.7,-243.29"/>
<text xml:space="preserve" text-anchor="start" x="613.7" y="-250.84" font-family="sans-Serif" font-weight="bold" font-size="11.00" fill="#17212b">sosa:Sensor</text>
</a>
</g>
</g>
<!-- http://xmlns.com/foaf/0.1/Person -->
<g id="node7" class="node">
<title>http://xmlns.com/foaf/0.1/Person</title>
<g id="a_node7"><a xlink:title="http://xmlns.com/foaf/0.1/Person">
<path fill="#eceff1" stroke="#52606d" d="M785.65,-272.29C785.65,-272.29 723.75,-272.29 723.75,-272.29 717.75,-272.29 711.75,-266.29 711.75,-260.29 711.75,-260.29 711.75,-248.29 711.75,-248.29 711.75,-242.29 717.75,-236.29 723.75,-236.29 723.75,-236.29 785.65,-236.29 785.65,-236.29 791.65,-236.29 797.65,-242.29 797.65,-248.29 797.65,-248.29 797.65,-260.29 797.65,-260.29 797.65,-266.29 791.65,-272.29 785.65,-272.29"/>
<polygon fill="#eceff1" stroke="none" points="718.95,-243.29 718.95,-265.29 790.45,-265.29 790.45,-243.29 718.95,-243.29"/>
<text xml:space="preserve" text-anchor="start" x="723.95" y="-250.84" font-family="sans-Serif" font-weight="bold" font-size="11.00" fill="#17212b">foaf:Person</text>
</a>
</g>
</g>
<!-- https://saref.etsi.org/core/Device -->
<g id="node8" class="node">
<title>https://saref.etsi.org/core/Device</title>
<g id="a_node8"><a xlink:title="https://saref.etsi.org/core/Device">
<path fill="#eceff1" stroke="#52606d" d="M895.53,-272.29C895.53,-272.29 829.88,-272.29 829.88,-272.29 823.88,-272.29 817.88,-266.29 817.88,-260.29 817.88,-260.29 817.88,-248.29 817.88,-248.29 817.88,-242.29 823.88,-236.29 829.88,-236.29 829.88,-236.29 895.53,-236.29 895.53,-236.29 901.53,-236.29 907.53,-242.29 907.53,-248.29 907.53,-248.29 907.53,-260.29 907.53,-260.29 907.53,-266.29 901.53,-272.29 895.53,-272.29"/>
<polygon fill="#eceff1" stroke="none" points="825.08,-243.29 825.08,-265.29 900.33,-265.29 900.33,-243.29 825.08,-243.29"/>
<text xml:space="preserve" text-anchor="start" x="830.08" y="-250.84" font-family="sans-Serif" font-weight="bold" font-size="11.00" fill="#17212b">saref:Device</text>
</a>
</g>
</g>
<!-- diagram:undeclared:standards:domain -->
<g id="node9" class="node">
<title>diagram:undeclared:standards:domain</title>
<polygon fill="#f4f4f4" stroke="#52606d" stroke-dasharray="5,2" points="1103.4,-304.95 928,-304.95 928,-203.62 1103.4,-203.62 1103.4,-304.95"/>
<text xml:space="preserve" text-anchor="start" x="965.83" y="-283.46" font-family="sans-Serif" font-style="italic" font-size="11.00" fill="#17212b">Domain not declared</text>
<g id="a_node9_0"><a xlink:title="http://www.w3.org/ns/sosa/hasSimpleResult">
<text xml:space="preserve" text-anchor="start" x="942.2" y="-261.41" font-family="sans-Serif" font-size="9.00" fill="#17212b">sosa:hasSimpleResult: not declared</text>
</a>
</g>
<g id="a_node9_1"><a xlink:title="http://www.w3.org/ns/sosa/resultTime">
<text xml:space="preserve" text-anchor="start" x="942.2" y="-239.66" font-family="sans-Serif" font-size="9.00" fill="#17212b">sosa:resultTime: not declared</text>
</a>
</g>
<g id="a_node9_2"><a xlink:title="http://xmlns.com/foaf/0.1/name">
<text xml:space="preserve" text-anchor="start" x="942.2" y="-217.91" font-family="sans-Serif" font-size="9.00" fill="#17212b">foaf:name: not declared</text>
</a>
</g>
</g>
<!-- registry:Annotation properties -->
<g id="node10" class="node">
<title>registry:Annotation properties</title>
<polygon fill="#f4f4f4" stroke="#52606d" points="1267.65,-424.58 1123.75,-424.58 1123.75,-84 1267.65,-84 1267.65,-424.58"/>
<text xml:space="preserve" text-anchor="start" x="1137.95" y="-403.09" font-family="sans-Serif" font-weight="bold" font-size="11.00" fill="#17212b">Annotation properties</text>
<g id="a_node10_3"><a xlink:title="http://purl.org/dc/terms/identifier">
<text xml:space="preserve" text-anchor="start" x="1137.95" y="-381.04" font-family="sans-Serif" font-size="9.00" fill="#17212b">dcterms:identifier</text>
</a>
</g>
<g id="a_node10_4"><a xlink:title="http://purl.org/dc/terms/language">
<text xml:space="preserve" text-anchor="start" x="1137.95" y="-359.29" font-family="sans-Serif" font-size="9.00" fill="#17212b">dcterms:language</text>
</a>
</g>
<g id="a_node10_5"><a xlink:title="http://purl.org/dc/terms/modified">
<text xml:space="preserve" text-anchor="start" x="1137.95" y="-337.54" font-family="sans-Serif" font-size="9.00" fill="#17212b">dcterms:modified</text>
</a>
</g>
<g id="a_node10_6"><a xlink:title="http://purl.org/dc/terms/replaces">
<text xml:space="preserve" text-anchor="start" x="1137.95" y="-315.79" font-family="sans-Serif" font-size="9.00" fill="#17212b">dcterms:replaces</text>
</a>
</g>
<g id="a_node10_7"><a xlink:title="http://www.w3.org/ns/shacl#class">
<text xml:space="preserve" text-anchor="start" x="1137.95" y="-294.04" font-family="sans-Serif" font-size="9.00" fill="#17212b">sh:class</text>
</a>
</g>
<g id="a_node10_8"><a xlink:title="http://www.w3.org/ns/shacl#datatype">
<text xml:space="preserve" text-anchor="start" x="1137.95" y="-272.29" font-family="sans-Serif" font-size="9.00" fill="#17212b">sh:datatype</text>
</a>
</g>
<g id="a_node10_9"><a xlink:title="http://www.w3.org/ns/shacl#maxCount">
<text xml:space="preserve" text-anchor="start" x="1137.95" y="-250.54" font-family="sans-Serif" font-size="9.00" fill="#17212b">sh:maxCount</text>
</a>
</g>
<g id="a_node10_10"><a xlink:title="http://www.w3.org/ns/shacl#message">
<text xml:space="preserve" text-anchor="start" x="1137.95" y="-228.79" font-family="sans-Serif" font-size="9.00" fill="#17212b">sh:message</text>
</a>
</g>
<g id="a_node10_11"><a xlink:title="http://www.w3.org/ns/shacl#minCount">
<text xml:space="preserve" text-anchor="start" x="1137.95" y="-207.04" font-family="sans-Serif" font-size="9.00" fill="#17212b">sh:minCount</text>
</a>
</g>
<g id="a_node10_12"><a xlink:title="http://www.w3.org/ns/shacl#or">
<text xml:space="preserve" text-anchor="start" x="1137.95" y="-185.29" font-family="sans-Serif" font-size="9.00" fill="#17212b">sh:or</text>
</a>
</g>
<g id="a_node10_13"><a xlink:title="http://www.w3.org/ns/shacl#path">
<text xml:space="preserve" text-anchor="start" x="1137.95" y="-163.54" font-family="sans-Serif" font-size="9.00" fill="#17212b">sh:path</text>
</a>
</g>
<g id="a_node10_14"><a xlink:title="http://www.w3.org/ns/shacl#property">
<text xml:space="preserve" text-anchor="start" x="1137.95" y="-141.79" font-family="sans-Serif" font-size="9.00" fill="#17212b">sh:property</text>
</a>
</g>
<g id="a_node10_15"><a xlink:title="http://www.w3.org/ns/shacl#severity">
<text xml:space="preserve" text-anchor="start" x="1137.95" y="-120.04" font-family="sans-Serif" font-size="9.00" fill="#17212b">sh:severity</text>
</a>
</g>
<g id="a_node10_16"><a xlink:title="http://www.w3.org/ns/shacl#targetClass">
<text xml:space="preserve" text-anchor="start" x="1137.95" y="-98.29" font-family="sans-Serif" font-size="9.00" fill="#17212b">sh:targetClass</text>
</a>
</g>
</g>
<!-- registry:Object properties with undeclared domain and range -->
<g id="node11" class="node">
<title>registry:Object properties with undeclared domain and range</title>
<polygon fill="#f4f4f4" stroke="#52606d" points="1535.4,-331.7 1288,-331.7 1288,-176.88 1535.4,-176.88 1535.4,-331.7"/>
<text xml:space="preserve" text-anchor="start" x="1302.2" y="-310.21" font-family="sans-Serif" font-weight="bold" font-size="11.00" fill="#17212b">Object properties with undeclared domain</text>
<text xml:space="preserve" text-anchor="start" x="1385.45" y="-299.21" font-family="sans-Serif" font-weight="bold" font-size="11.00" fill="#17212b">and range</text>
<g id="a_node11_17"><a xlink:title="http://www.opengis.net/ont/geosparql#hasGeometry">
<text xml:space="preserve" text-anchor="start" x="1302.2" y="-278.16" font-family="sans-Serif" font-size="9.00" fill="#17212b">geo:hasGeometry</text>
</a>
</g>
<g id="a_node11_18"><a xlink:title="http://www.w3.org/ns/sosa/hasFeatureOfInterest">
<text xml:space="preserve" text-anchor="start" x="1302.2" y="-256.41" font-family="sans-Serif" font-size="9.00" fill="#17212b">sosa:hasFeatureOfInterest</text>
</a>
</g>
<g id="a_node11_19"><a xlink:title="http://www.w3.org/ns/sosa/isHostedBy">
<text xml:space="preserve" text-anchor="start" x="1302.2" y="-234.66" font-family="sans-Serif" font-size="9.00" fill="#17212b">sosa:isHostedBy</text>
</a>
</g>
<g id="a_node11_20"><a xlink:title="http://www.w3.org/ns/sosa/madeBySensor">
<text xml:space="preserve" text-anchor="start" x="1302.2" y="-212.91" font-family="sans-Serif" font-size="9.00" fill="#17212b">sosa:madeBySensor</text>
</a>
</g>
<g id="a_node11_21"><a xlink:title="http://www.w3.org/ns/sosa/observedProperty">
<text xml:space="preserve" text-anchor="start" x="1302.2" y="-191.16" font-family="sans-Serif" font-size="9.00" fill="#17212b">sosa:observedProperty</text>
</a>
</g>
</g>
</g>
</svg>
